<?xml version="1.0" encoding="UTF-8" standalone="no"?>
<svg
   xmlns:dc="http://purl.org/dc/elements/1.1/"
   xmlns:cc="http://creativecommons.org/ns#"
   xmlns:rdf="http://www.w3.org/1999/02/22-rdf-syntax-ns#"
   xmlns:svg="http://www.w3.org/2000/svg"
   xmlns="http://www.w3.org/2000/svg"
   xmlns:sodipodi="http://sodipodi.sourceforge.net/DTD/sodipodi-0.dtd"
   xmlns:inkscape="http://www.inkscape.org/namespaces/inkscape"
   version="1.1"
   id="svg10"
   width="251.4973"
   height="273.23148"
   viewBox="0 0 251.4973 273.23148"
   sodipodi:docname="logo-blanco.svg"
   inkscape:version="1.0.1 (1.0.1+r73)">
  <metadata
     id="metadata16">
    <rdf:RDF>
      <cc:Work
         rdf:about="">
        <dc:format>image/svg+xml</dc:format>
        <dc:type
           rdf:resource="http://purl.org/dc/dcmitype/StillImage" />
        <dc:title></dc:title>
      </cc:Work>
    </rdf:RDF>
  </metadata>
  <defs
     id="defs14" />
  <sodipodi:namedview
     pagecolor="#ffffff"
     bordercolor="#666666"
     borderopacity="1"
     objecttolerance="10"
     gridtolerance="10"
     guidetolerance="10"
     inkscape:pageopacity="0"
     inkscape:pageshadow="2"
     inkscape:window-width="1920"
     inkscape:window-height="1018"
     id="namedview12"
     showgrid="false"
     inkscape:zoom="1.74375"
     inkscape:cx="1.8410066"
     inkscape:cy="140.20282"
     inkscape:window-x="0"
     inkscape:window-y="34"
     inkscape:window-maximized="1"
     inkscape:current-layer="g18" />
  <g
     inkscape:groupmode="layer"
     inkscape:label="Image"
     id="g18"
     transform="translate(-130.91885,-99.79718)">
    <path
       style="fill:#ffffff;fill-opacity:1;stroke-width:1"
       d="m 244.17606,371.97754 c -6.31604,-1.47535 -8.72634,-2.68954 -31.68,-15.95883 -9.768,-5.64679 -27.48,-15.85111 -39.36,-22.67628 -24.6481,-14.16055 -31.10432,-19.52717 -36.34717,-30.21292 -5.87277,-11.96959 -5.87004,-11.93861 -5.87004,-66.67647 0,-54.67141 0.007,-54.74455 5.81488,-66.54328 5.11466,-10.38935 12.17161,-16.46958 33.04233,-28.4691 10.032,-5.76785 28.91625,-16.61966 41.96499,-24.11513 13.04874,-7.49548 25.79274,-14.3645 28.32,-15.26449 2.52726,-0.89999 8.69901,-1.84087 13.71501,-2.090847 15.39271,-0.76712 17.03916,-0.0817 62.4,25.978287 21.912,12.58852 41.47812,23.93601 43.48027,25.21666 8.89423,5.68906 16.43127,15.89426 20.34143,27.54245 l 2.4183,7.20397 v 50.29651 c 0,55.6948 0.0974,54.6731 -6.39701,67.10145 -6.40972,12.26627 -9.34049,14.43102 -55.08659,40.68855 -22.8389,13.10915 -44.16027,24.90461 -47.38083,26.21211 -7.06419,2.86795 -21.05922,3.70994 -29.37557,1.76736 z m 78.11344,-35.9245 c 37.12908,-21.36383 41.60161,-24.65293 47.42975,-34.87988 4.17175,-7.3204 6.12079,-15.51924 5.77819,-24.30658 l -0.28138,-7.21678 -44.16,25.37688 c -24.288,13.95728 -44.67555,25.38801 -45.30565,25.40162 -0.63012,0.0136 -7.43318,-4.08453 -15.11792,-9.10697 -7.68473,-5.02244 -26.60919,-16.46165 -42.05434,-25.42046 l -28.08209,-16.28873 -0.26181,17.91064 c -0.14492,9.91462 0.12939,18.30184 0.61445,18.7869 1.20487,1.20487 84.87503,49.46065 85.95419,49.57306 0.47676,0.0496 16.44573,-8.8737 35.48661,-19.8297 z M 168.33606,271.09073 v -51.28231 l 43.64184,-24.23934 43.64185,-24.23934 -15.56185,-8.95768 c -8.55901,-4.92673 -15.7937,-8.95798 -16.07707,-8.95836 -0.28338,-3.6e-4 -19.72338,10.72576 -43.2,23.83582 l -42.68477,23.83648 -0.25428,41.20352 c -0.16512,26.75398 0.10912,42.9607 0.78197,46.21422 2.45026,11.84786 10.95955,23.50977 21.89231,30.00322 3.509,2.08415 6.704,3.80662 7.1,3.82772 0.396,0.0211 0.72,-23.03868 0.72,-51.24395 z m 114.91777,8.42057 24.30969,-13.98075 -0.25373,-29.29743 -0.25373,-29.29742 -25.20054,-14.40792 -25.20053,-14.40791 -25.19947,14.39036 -25.19946,14.39035 -0.25374,29.31952 -0.25373,29.31952 25.21373,14.49776 c 13.90662,7.99622 25.83441,14.26388 26.59778,13.97621 0.76122,-0.28684 12.3234,-6.81288 25.69373,-14.50229 z m 45.91509,-20.63985 14.86397,-8.78158 -0.24841,-50.40278 -0.24842,-50.40277 -32.16,-18.66731 c -17.688,-10.26701 -34.32,-19.68407 -36.96,-20.92679 -11.64184,-5.48015 -26.27283,-5.05065 -38.62551,1.13384 -3.82004,1.91254 -7.37283,3.99223 -7.8951,4.62153 -0.6965,0.83921 10.55783,8.25061 42.22551,27.80711 l 43.1751,26.66293 v 48.86871 c 0,26.87778 0.227,48.8687 0.50444,48.8687 0.27745,0 7.19323,-3.95172 15.36842,-8.78159 z"
       id="path22" />
  </g>
</svg>
